<?xml version="1.0" encoding="UTF-8"?>
<!DOCTYPE svg PUBLIC "-//W3C//DTD SVG 1.1//EN" "http://www.w3.org/Graphics/SVG/1.1/DTD/svg11.dtd">
<!-- Creator: CorelDRAW X8 -->
<svg xmlns="http://www.w3.org/2000/svg" xml:space="preserve" width="210mm" height="297mm" version="1.1" style="shape-rendering:geometricPrecision; text-rendering:geometricPrecision; image-rendering:optimizeQuality; fill-rule:evenodd; clip-rule:evenodd"
viewBox="0 0 21000 29700"
 xmlns:xlink="http://www.w3.org/1999/xlink">
 <defs>
  <style type="text/css">
   <![CDATA[
    .fil0 {fill:#FEFEFE}
   ]]>
  </style>
 </defs>
 <g id="Слой_x0020_1">
  <metadata id="CorelCorpID_0Corel-Layer"/>
  <path class="fil0" d="M20736 14209l-9490 -9147c-199,-192 -464,-298 -746,-298 -282,0 -547,106 -746,298l-9490 9147c-318,306 -281,569 -231,694 51,125 201,343 643,343l1068 0 0 8129c0,846 729,1561 1555,1561l4810 0 0 -5510 4655 0 0 5510 4937 0c828,0 1523,-730 1523,-1561l0 -8129 1100 0c442,0 592,-218 643,-343 50,-125 87,-388 -231,-694z"/>
  <g id="_1685611184560">
  </g>
  <g id="_1685611185616">
  </g>
  <g id="_1685611184208">
  </g>
  <g id="_1685611184880">
  </g>
  <g id="_1685611183984">
  </g>
  <g id="_1685611185200">
  </g>
  <g id="_1685611183760">
  </g>
  <g id="_1685611182544">
  </g>
  <g id="_1685611183376">
  </g>
  <g id="_1685611183184">
  </g>
  <g id="_1685611183664">
  </g>
  <g id="_1685611182704">
  </g>
  <g id="_1685611183024">
  </g>
  <g id="_1685611183152">
  </g>
  <g id="_1685611183312">
  </g>
 </g>
</svg>
